<svg width="32" height="33" viewBox="0 0 32 33" fill="none" xmlns="http://www.w3.org/2000/svg">
<path d="M6.66724 15.3868C6.05236 15.3868 5.5539 15.8853 5.5539 16.5001C5.5539 17.115 6.05236 17.6135 6.66724 17.6135V15.3868ZM25.3339 16.5001L26.1211 17.2874C26.5559 16.8526 26.5559 16.1477 26.1211 15.7129L25.3339 16.5001ZM16.7878 6.37956C16.353 5.94478 15.6481 5.94478 15.2133 6.37956C14.7785 6.81435 14.7785 7.51927 15.2133 7.95405L16.7878 6.37956ZM15.2133 25.0462C14.7785 25.481 14.7785 26.1859 15.2133 26.6207C15.6481 27.0555 16.353 27.0555 16.7878 26.6207L15.2133 25.0462ZM6.66724 17.6135H25.3339V15.3868H6.66724V17.6135ZM15.2133 7.95405L24.5467 17.2874L26.1211 15.7129L16.7878 6.37956L15.2133 7.95405ZM24.5467 15.7129L15.2133 25.0462L16.7878 26.6207L26.1211 17.2874L24.5467 15.7129Z" fill="black"/>
</svg>
