<svg width="32" height="33" viewBox="0 0 32 33" fill="none" xmlns="http://www.w3.org/2000/svg">
<path d="M25.3338 17.6135C25.9487 17.6135 26.4472 17.115 26.4472 16.5001C26.4472 15.8853 25.9487 15.3868 25.3338 15.3868V17.6135ZM6.66718 16.5001L5.87993 15.7129C5.44515 16.1477 5.44515 16.8526 5.87993 17.2874L6.66718 16.5001ZM15.2133 26.6207C15.648 27.0555 16.353 27.0555 16.7878 26.6207C17.2225 26.1859 17.2225 25.481 16.7878 25.0462L15.2133 26.6207ZM16.7878 7.95405C17.2225 7.51927 17.2225 6.81435 16.7878 6.37956C16.353 5.94478 15.648 5.94478 15.2133 6.37956L16.7878 7.95405ZM25.3338 15.3868H6.66718V17.6135H25.3338V15.3868ZM16.7878 25.0462L7.45442 15.7129L5.87993 17.2874L15.2133 26.6207L16.7878 25.0462ZM7.45442 17.2874L16.7878 7.95405L15.2133 6.37956L5.87993 15.7129L7.45442 17.2874Z" fill="black"/>
</svg>
